<svg width="64" height="64" viewBox="0 0 64 64" fill="none" xmlns="http://www.w3.org/2000/svg">
<path d="M25.5 1.4C20.9 3.5 17.9 7.4 16.3 13.2C13.8 22 13.7 24 15.3 25.8C16.1 26.7 17.1 28.5 17.4 29.7C18.7 33.7 22.7 36 28.6 36C31.6 36 34 35.5 34 35C34 34.4 31.6 34 28.7 34C24.3 34 22.9 33.6 21 31.5C19.7 30.1 19 28.7 19.3 28.3C19.7 28 20 28.2 20 28.8C20 29.5 20.5 30 21 30C21.6 30 22 28.2 22 26V22H27.4C32.7 22 38.5 19.2 36.8 17.4C36.3 17 35.2 17.4 34.2 18.3C33 19.4 30.6 20 27.2 20C22.1 20 22 19.9 22 17C22 12.8 24 9.1 27.1 7.4C34.5 3.6 42 8.5 42 17.2C42 19.9 41.8 20.2 39.5 19.6C38.1 19.2 37 19.4 37 20C37 20.5 38.1 21.2 39.5 21.6C41.6 22.1 42 22.8 42 26.2C42 34.2 36.8 38.9 29.5 37.6C26.3 37 24.4 38.3 27.1 39.2C28 39.5 28 40.2 27.1 41.8C26.2 43.5 25 44 21.7 44C19.3 44 16.5 44.6 15.4 45.4C13 47.2 14.1 48.5 16.8 47.1C18 46.5 20.3 46 22 46C24.6 46 25.1 46.4 25.7 49C26.3 52.3 27 52.6 28.9 50.8C29.9 49.7 30 50 29.6 52C29.3 53.4 28.8 56.2 28.5 58.2L27.9 62H18.9H9.8L10.3 57.8C10.5 55.4 11.1 52.5 11.5 51.2C11.9 49.9 11.8 49 11.2 49C9.7 49 8 54.7 8 59.6V64H32H56V59.2C56 50.1 50.4 44 41.8 44C39.1 44 37.8 43.4 37 42C36.1 40.3 36.5 39.5 39.4 37C41.3 35.3 43.1 32.6 43.5 31.1C43.9 29.1 44.9 28 46.5 27.6C49.7 26.8 50.6 23 49 17.7C48.3 15.4 47.3 12.1 46.8 10.3C45.9 7.2 43.4 4.3 42.5 5.2C42.2 5.4 42.9 7.4 44 9.5C46.2 13.7 46.5 16 45.1 16C44.6 16 43.9 14.7 43.5 13.1C43.2 11.6 41.5 9 39.9 7.4C37.4 5 36 4.5 32 4.5C28 4.5 26.6 5 24.1 7.4C22.5 9 20.8 11.6 20.5 13.1C19.8 16.3 18 17.1 18 14.2C18 11.4 21.7 6.1 25.2 3.9C28.5 1.9 33.2 1.8 39 3.5C41.4 4.2 41.4 4.2 39.8 2.5C37.6 0.199999 29.5 -0.500001 25.5 1.4ZM20 22.1C20 25.4 19.7 26.1 18.3 25.8C15.1 25.2 15.3 18 18.5 18C19.6 18 20 19.1 20 22.1ZM47.5 22C47.5 24.5 47 25.6 45.8 25.8C44.3 26.1 44 25.4 44 22C44 18.6 44.3 17.9 45.8 18.2C47 18.4 47.5 19.5 47.5 22ZM33.4 41.5C33 42.3 32.4 43 32 43C31.6 43 31 42.3 30.6 41.5C30.2 40.5 30.7 40 32 40C33.3 40 33.8 40.5 33.4 41.5ZM30 44.2C30 46.1 28.2 48.5 27.5 47.8C26.6 46.9 27.9 43 29.1 43C29.6 43 30 43.6 30 44.2ZM36.5 45.1C36.9 46.2 36.9 47.4 36.5 47.8C35.8 48.5 34 46.1 34 44.2C34 42.2 35.8 42.8 36.5 45.1ZM48 47.5C51.6 49.4 54 53.7 54 58.5V62H45H36.1L35.5 58.3C35.2 56.2 34.7 53.4 34.4 52C34 50 34.1 49.7 35.1 50.7C37 52.6 37.7 52.3 38.4 49C38.9 46.4 39.4 46 42 46C43.7 46 46.4 46.7 48 47.5ZM33 48C33 48.5 32.6 49 32 49C31.5 49 31 48.5 31 48C31 47.4 31.5 47 32 47C32.6 47 33 47.4 33 48ZM33 55.9C33 57.5 33.3 59.5 33.6 60.4C34 61.6 33.6 62 32 62C30.4 62 30 61.6 30.4 60.4C30.7 59.5 31 57.5 31 55.9C31 54.3 31.5 53 32 53C32.6 53 33 54.3 33 55.9Z" fill="white"/>
<path d="M26 26.5C26 27.3 26.5 28 27 28C27.6 28 28 27.3 28 26.5C28 25.7 27.6 25 27 25C26.5 25 26 25.7 26 26.5Z" fill="white"/>
<path d="M36 26.5C36 27.3 36.5 28 37 28C37.6 28 38 27.3 38 26.5C38 25.7 37.6 25 37 25C36.5 25 36 25.7 36 26.5Z" fill="white"/>
</svg>
