<svg width="64" height="64" viewBox="0 0 64 64" fill="none" xmlns="http://www.w3.org/2000/svg">
<path d="M20.5 3.4C14.4 6.1 10 12.8 10 19.3C10 21.3 9.2 23.2 8 24.3C5.5 26.4 5.5 28.6 8 30.7C10.6 32.9 10.7 37 8.2 37C5.8 37 2 41.1 2 43.7C2 44.8 2.9 46.9 4 48.3C5.5 50.1 6 52.3 6 56.4V62H27H48V59.2C48 57.6 48.9 55.5 50 54.5C51.6 53.1 52 51.4 52 46.6C52 39.5 51.3 38.2 47.4 37.1C43.8 36.2 43.1 33.4 45.9 30.9C48.5 28.4 48.6 26.5 46 24.3C44.7 23.2 44 21.3 44 19.2C44 7.3 31.1 -1.3 20.5 3.4ZM34.1 6.2C36.6 7.6 38.7 9.9 40 12.5C42.6 17.8 42.5 19.7 39.9 14.8C37.7 10.5 31.8 7 27 7C22.2 7 16.3 10.5 14.1 14.8C13 16.8 12.1 17.8 12.1 17C12 14.1 16.6 7.7 20 5.9C24.6 3.4 29.4 3.5 34.1 6.2ZM29.5 11.7C27.8 18.7 26.9 19.5 20.2 19.8L14 20.1L15.1 17.3C15.6 15.8 16.7 13.9 17.3 13.1C19 11.1 24 9.1 27.4 9C30 9 30.2 9.2 29.5 11.7ZM36.8 13.2C37.4 14 38.4 15.8 38.9 17.4C39.9 19.9 39.8 20.1 37.8 19.8C35.6 19.5 34 17.2 32.5 12.2C31.9 10.1 32 9.9 33.7 10.9C34.8 11.4 36.2 12.5 36.8 13.2ZM32 16.9C32 18 33.1 19.7 34.5 20.8L36.9 22.7L31.7 23.2C28.8 23.5 24.3 23.4 21.5 23L16.5 22.3L21 22.1C26.2 22 30 19.8 30 16.9C30 15.9 30.5 15 31 15C31.6 15 32 15.9 32 16.9ZM18.4 34.9C20.3 36.9 21 38.7 21 41.5C21 44.5 20.7 45.1 19.8 44.2C18.4 42.8 13 42.6 13 44C13 44.5 14.1 45 15.4 45C20.2 45 22.7 50.2 19.4 53.5C17.1 55.8 8.7 55.2 8.2 52.8C7.9 51.3 8.6 51 11.4 51C13.4 51 15 50.5 15 50C15 49.4 13.2 49 11.1 49C3.1 49 1.1 41.1 8.6 39.1C10.9 38.5 11.6 37.7 11.8 35.2C12 33.4 12.5 32 13.1 32C13.6 32 14.1 29.6 14.1 26.7L14.2 21.5L15 26.8C15.6 30.5 16.6 33 18.4 34.9ZM39.5 35.8C39.1 36.9 38.7 37 37.6 36.1C36.4 35.1 36.4 34.5 37.6 32.2C38.4 30.7 39.1 27.7 39.2 25.5C39.3 23.1 39.5 24 39.7 27.9C39.9 31.4 39.8 34.9 39.5 35.8ZM12 27.5C12 30 9.7 31 8.5 29C7.5 27.4 8.7 25 10.5 25C11.4 25 12 25.9 12 27.5ZM19.4 26.5C19.7 27.4 19.4 28 18.5 28C17.7 28 17 27.3 17 26.5C17 25.7 17.4 25 17.9 25C18.4 25 19 25.7 19.4 26.5ZM37 26.5C37 27.3 36.3 28 35.5 28C34.6 28 34.3 27.4 34.6 26.5C35 25.7 35.6 25 36.1 25C36.6 25 37 25.7 37 26.5ZM45.5 27.5C45.5 28.6 44.7 29.6 43.8 29.8C42.4 30.1 42 29.5 42 27.5C42 25.5 42.4 24.9 43.8 25.2C44.7 25.4 45.5 26.4 45.5 27.5ZM29.3 28C29.7 29.5 30.7 30 32.9 30C34.6 30 36 30.3 36 30.7C36 32.1 32.6 35 31 35C30.1 35 28.9 35.5 28.3 36.1C26.8 37.6 22.5 36.5 20 34C17.2 31.2 17.5 30 21.1 30C23.3 30 24.3 29.5 24.7 28C25 26.9 26 26 27 26C28 26 29 26.9 29.3 28ZM43 37C43 37.5 44.5 38.3 46.3 38.8C49.4 39.6 49.5 39.7 49.8 46C50 49.5 49.6 52.8 49.1 53.3C48.3 54.1 48 53.4 48 51C48 45.7 44.8 43 38.3 43C35.4 43 33 42.5 33 42C33 41.4 33.8 41 34.8 41C35.8 41 37.7 39.9 39 38.5C41.4 35.9 43 35.3 43 37ZM36 38C36 38.5 34.7 39 33 39C31.4 39 30 38.5 30 38C30 37.4 31.4 37 33 37C34.7 37 36 37.4 36 38ZM29.5 40.7C31.4 41.8 31.4 42 29.7 45.4C28.8 47.4 27.6 49 27 49C25.6 49 23 43.6 23 40.6C23 38.6 23.3 38.3 25.3 38.8C26.5 39.2 28.4 40 29.5 40.7ZM35 46.4C35 47.2 34.6 49 34.1 50.4C33.3 52.2 32.6 52.7 31.1 52.3C28.6 51.7 28.6 51.6 30.7 47.9C32.5 44.8 35 44 35 46.4ZM44.4 46.6C45.5 47.6 46 50 46 54.1V60H37H28V56.6C28 53.1 28 53.1 31.1 54.2C34.7 55.5 35.5 54.7 36.5 48.8C37.1 45.4 37.5 45 40 45C41.6 45 43.6 45.7 44.4 46.6ZM26 55.7V60H17C9.1 60 8 59.8 8 58.2C8 56.8 8.8 56.6 13.1 56.9C17.3 57.1 18.6 56.8 20.6 54.9C21.9 53.7 23 51.5 23 50.1C23 47.7 23.1 47.7 24.5 49.6C25.3 50.6 26 53.4 26 55.7Z" fill="white"/>
<path d="M23.6 32.4C24.3 34.2 26.5 35.1 28.4 34.4C30.1 33.8 31.4 31 30.1 31C29.6 31 29 31.6 28.7 32.2C28.4 33.2 27.8 33.2 26.1 32.2C23.4 30.6 22.9 30.7 23.6 32.4Z" fill="white"/>
<path d="M45.7 2.6C45.3 3 45 4.7 45 6.3C45 8.3 45.6 9.3 46.9 9.7C48.2 10 48.6 10.8 48.3 12.1C47.7 14.4 48.2 14.5 52.3 12.3C54.1 11.4 56.9 10.4 58.5 10C61.1 9.5 61.5 9 61.5 6V2.5L54 2.2C49.8 2.1 46.1 2.2 45.7 2.6ZM60 5.8C60 7.8 53.1 10.4 51.6 8.9C51 8.4 49.8 8 48.8 8C47.7 8 47 7.3 47 6C47 4.2 47.7 4 53.5 4C59 4 60 4.3 60 5.8Z" fill="white"/>
<path d="M48.4 18.4C48.1 19.2 48 20.9 48.2 22.2C48.4 23.9 49.3 24.6 52.1 25C54 25.4 56.7 26.4 58 27.3C59.4 28.2 60.7 29 61 29C61.3 29 61.6 26.4 61.5 23.2V17.5L55.2 17.2C50.4 17 48.8 17.2 48.4 18.4ZM60 20.7C60 23.6 58.6 25 57 24C56.2 23.4 54.3 23 52.8 23C50.7 23 50 22.5 50 21C50 19.3 50.7 19 55 19C59.1 19 60 19.3 60 20.7Z" fill="white"/>
</svg>
